REM DIRINDEX 1\2,1\3
REM DIRNAME cjc039,folder01,folder02
TITLE ""
FILE "1201-1220.mp3" MP3
  TRACK 01 AUDIO
    TITLE "0:"
    INDEX 01 00:00:00
  TRACK 02 AUDIO
    TITLE "2:cjc039_1401"
    INDEX 01 00:00:27
  TRACK 03 AUDIO
    TITLE "0:"
    INDEX 01 00:01:32
  TRACK 04 AUDIO
    TITLE "3:cjc039_1402"
    INDEX 01 00:02:10
  TRACK 05 AUDIO
    TITLE "0:"
    INDEX 01 00:05:61
  TRACK 06 AUDIO
    TITLE "2:cjc039_1403"
    INDEX 01 00:07:37
  TRACK 07 AUDIO
    TITLE "0:"
    INDEX 01 00:08:70
  TRACK 08 AUDIO
    TITLE "3:cjc039_1404"
    INDEX 01 00:09:45
  TRACK 09 AUDIO
    TITLE "0:"
    INDEX 01 00:13:26
  TRACK 10 AUDIO
    TITLE "2:cjc039_1405"
    INDEX 01 00:14:72
  TRACK 11 AUDIO
    TITLE "0:"
    INDEX 01 00:16:08
  TRACK 12 AUDIO
    TITLE "3:cjc039_1406"
    INDEX 01 00:16:59
  TRACK 13 AUDIO
    TITLE "0:"
    INDEX 01 00:21:23
  TRACK 14 AUDIO
    TITLE "2:cjc039_1407"
    INDEX 01 00:22:72
  TRACK 15 AUDIO
    TITLE "0:"
    INDEX 01 00:24:20
  TRACK 16 AUDIO
    TITLE "3:cjc039_1408"
    INDEX 01 00:24:74
  TRACK 17 AUDIO
    TITLE "0:"
    INDEX 01 00:28:15
  TRACK 18 AUDIO
    TITLE "2:cjc039_1409"
    INDEX 01 00:29:68
  TRACK 19 AUDIO
    TITLE "0:"
    INDEX 01 00:30:73
  TRACK 20 AUDIO
    TITLE "3:cjc039_1410"
    INDEX 01 00:31:53
  TRACK 21 AUDIO
    TITLE "0:"
    INDEX 01 00:34:49
  TRACK 22 AUDIO
    TITLE "2:cjc039_1411"
    INDEX 01 00:36:27
  TRACK 23 AUDIO
    TITLE "0:"
    INDEX 01 00:37:56
  TRACK 24 AUDIO
    TITLE "3:cjc039_1412"
    INDEX 01 00:38:33
  TRACK 25 AUDIO
    TITLE "0:"
    INDEX 01 00:42:29
  TRACK 26 AUDIO
    TITLE "2:cjc039_1413"
    INDEX 01 00:44:07
  TRACK 27 AUDIO
    TITLE "0:"
    INDEX 01 00:45:14
  TRACK 28 AUDIO
    TITLE "3:cjc039_1414"
    INDEX 01 00:45:69
  TRACK 29 AUDIO
    TITLE "0:"
    INDEX 01 00:49:47
  TRACK 30 AUDIO
    TITLE "2:cjc039_1415"
    INDEX 01 00:51:26
  TRACK 31 AUDIO
    TITLE "0:"
    INDEX 01 00:52:53
  TRACK 32 AUDIO
    TITLE "3:cjc039_1416"
    INDEX 01 00:53:35
  TRACK 33 AUDIO
    TITLE "0:"
    INDEX 01 00:58:20
  TRACK 34 AUDIO
    TITLE "2:cjc039_1417"
    INDEX 01 00:59:69
  TRACK 35 AUDIO
    TITLE "0:"
    INDEX 01 01:00:70
  TRACK 36 AUDIO
    TITLE "3:cjc039_1418"
    INDEX 01 01:01:46
  TRACK 37 AUDIO
    TITLE "0:"
    INDEX 01 01:05:56
  TRACK 38 AUDIO
    TITLE "2:cjc039_1419"
    INDEX 01 01:07:27
  TRACK 39 AUDIO
    TITLE "0:"
    INDEX 01 01:08:62
  TRACK 40 AUDIO
    TITLE "3:cjc039_1420"
    INDEX 01 01:09:34
  TRACK 41 AUDIO
    TITLE "0:"
    INDEX 01 01:14:04
  TRACK 42 AUDIO
    TITLE "2:cjc039_1421"
    INDEX 01 01:15:54
  TRACK 43 AUDIO
    TITLE "0:"
    INDEX 01 01:16:61
  TRACK 44 AUDIO
    TITLE "3:cjc039_1422"
    INDEX 01 01:17:35
  TRACK 45 AUDIO
    TITLE "0:"
    INDEX 01 01:21:14
  TRACK 46 AUDIO
    TITLE "2:cjc039_1423"
    INDEX 01 01:22:64
  TRACK 47 AUDIO
    TITLE "0:"
    INDEX 01 01:24:28
  TRACK 48 AUDIO
    TITLE "3:cjc039_1424"
    INDEX 01 01:25:06
  TRACK 49 AUDIO
    TITLE "0:"
    INDEX 01 01:30:34
  TRACK 50 AUDIO
    TITLE "2:cjc039_1425"
    INDEX 01 01:32:13
  TRACK 51 AUDIO
    TITLE "0:"
    INDEX 01 01:33:17
  TRACK 52 AUDIO
    TITLE "3:cjc039_1426"
    INDEX 01 01:33:68
  TRACK 53 AUDIO
    TITLE "0:"
    INDEX 01 01:37:21
  TRACK 54 AUDIO
    TITLE "2:cjc039_1427"
    INDEX 01 01:38:71
  TRACK 55 AUDIO
    TITLE "0:"
    INDEX 01 01:39:74
  TRACK 56 AUDIO
    TITLE "3:cjc039_1428"
    INDEX 01 01:40:54
  TRACK 57 AUDIO
    TITLE "0:"
    INDEX 01 01:44:05
  TRACK 58 AUDIO
    TITLE "2:cjc039_1429"
    INDEX 01 01:45:53
  TRACK 59 AUDIO
    TITLE "0:"
    INDEX 01 01:46:72
  TRACK 60 AUDIO
    TITLE "3:cjc039_1430"
    INDEX 01 01:47:54
  TRACK 61 AUDIO
    TITLE "0:"
    INDEX 01 01:51:58
  TRACK 62 AUDIO
    TITLE "2:cjc039_1431"
    INDEX 01 01:53:37
  TRACK 63 AUDIO
    TITLE "0:"
    INDEX 01 01:54:56
  TRACK 64 AUDIO
    TITLE "3:cjc039_1432"
    INDEX 01 01:55:38
  TRACK 65 AUDIO
    TITLE "0:"
    INDEX 01 01:59:46
  TRACK 66 AUDIO
    TITLE "2:cjc039_1433"
    INDEX 01 02:01:23
  TRACK 67 AUDIO
    TITLE "0:"
    INDEX 01 02:02:20
  TRACK 68 AUDIO
    TITLE "3:cjc039_1434"
    INDEX 01 02:02:73
  TRACK 69 AUDIO
    TITLE "0:"
    INDEX 01 02:06:20
  TRACK 70 AUDIO
    TITLE "2:cjc039_1435"
    INDEX 01 02:08:03
  TRACK 71 AUDIO
    TITLE "0:"
    INDEX 01 02:09:21
  TRACK 72 AUDIO
    TITLE "3:cjc039_1436"
    INDEX 01 02:09:73
  TRACK 73 AUDIO
    TITLE "0:"
    INDEX 01 02:13:44
  TRACK 74 AUDIO
    TITLE "2:cjc039_1437"
    INDEX 01 02:15:21
  TRACK 75 AUDIO
    TITLE "0:"
    INDEX 01 02:16:11
  TRACK 76 AUDIO
    TITLE "3:cjc039_1438"
    INDEX 01 02:16:66
  TRACK 77 AUDIO
    TITLE "0:"
    INDEX 01 02:20:61
  TRACK 78 AUDIO
    TITLE "2:cjc039_1439"
    INDEX 01 02:22:35
  TRACK 79 AUDIO
    TITLE "0:"
    INDEX 01 02:23:52
  TRACK 80 AUDIO
    TITLE "3:cjc039_1440"
    INDEX 01 02:24:38
  TRACK 81 AUDIO
    TITLE "0:"
    INDEX 01 02:28:43
